<?xml version="1.0" encoding="utf-8"?>
<!-- Generator: Adobe Illustrator 27.9.0, SVG Export Plug-In . SVG Version: 6.00 Build 0)  -->
<svg version="1.1" id="Layer_1" xmlns="http://www.w3.org/2000/svg" xmlns:xlink="http://www.w3.org/1999/xlink" x="0px" y="0px"
	 viewBox="0 0 884.2 396" style="enable-background:new 0 0 884.2 396;" xml:space="preserve">
<style type="text/css">
	.st0{fill:#020203;}
</style>
<g>
	<g>
		<polygon class="st0" points="315.3,113.5 303.7,113.5 288.7,130.5 288.7,113.5 278.6,113.5 278.6,152.8 288.7,152.8 288.7,143.2 
			293.9,137.4 304.3,152.8 316.3,152.8 300.7,129.8 		"/>
		<rect x="320.7" y="113.5" class="st0" width="10" height="39.4"/>
		<polygon class="st0" points="378,142.4 370.3,113.5 360.5,113.5 353,142.4 345.3,113.5 334.6,113.5 347.4,152.8 357.8,152.8 
			365.2,125.6 372.5,152.8 382.8,152.8 395.8,113.5 385.6,113.5 		"/>
		<rect x="399.4" y="113.5" class="st0" width="10" height="39.4"/>
		<polygon class="st0" points="440.1,132.2 453.1,113.5 441.4,113.5 433.8,124.9 426.2,113.5 414.5,113.5 427.7,132.7 413.6,152.8 
			425.3,152.8 433.8,140.3 442.3,152.8 454.2,152.8 		"/>
	</g>
	<g>
		<path d="M280.6,198.8v-21.2h22.9v21.2H280.6z M280.6,297v-86.5h22.9V297H280.6z"/>
		<path d="M325.2,210.5h21.1v11.8c7.5-9.2,16.5-13.8,27-13.8c5.5,0,10.3,1.1,14.4,3.4c4.1,2.3,7.4,5.7,10,10.3
			c3.8-4.6,7.9-8.1,12.3-10.3c4.4-2.3,9.1-3.4,14.1-3.4c6.4,0,11.7,1.3,16.1,3.9c4.4,2.6,7.7,6.4,9.9,11.4c1.6,3.7,2.4,9.7,2.4,17.9
			V297h-22.9v-49.4c0-8.6-0.8-14.1-2.4-16.6c-2.1-3.3-5.4-4.9-9.8-4.9c-3.2,0-6.2,1-9,2.9c-2.8,2-4.9,4.8-6.1,8.6
			c-1.3,3.8-1.9,9.7-1.9,17.9V297h-22.9v-47.4c0-8.4-0.4-13.9-1.2-16.3c-0.8-2.4-2.1-4.3-3.8-5.5c-1.7-1.2-4-1.8-7-1.8
			c-3.5,0-6.7,1-9.5,2.8c-2.8,1.9-4.8,4.6-6.1,8.2c-1.2,3.6-1.8,9.5-1.8,17.8v42h-22.9V210.5z"/>
		<path d="M492.3,236.9l-20.8-3.7c2.3-8.4,6.4-14.6,12.1-18.6c5.7-4,14.2-6,25.4-6c10.2,0,17.8,1.2,22.8,3.6c5,2.4,8.5,5.5,10.5,9.2
			c2,3.7,3.1,10.5,3.1,20.5l-0.2,26.7c0,7.6,0.4,13.2,1.1,16.8c0.7,3.6,2.1,7.5,4.1,11.6h-22.6c-0.6-1.5-1.3-3.8-2.2-6.8
			c-0.4-1.4-0.7-2.3-0.8-2.7c-3.9,3.8-8.1,6.7-12.5,8.6c-4.5,1.9-9.2,2.9-14.3,2.9c-8.9,0-15.9-2.4-21.1-7.2
			c-5.1-4.8-7.7-10.9-7.7-18.3c0-4.9,1.2-9.2,3.5-13.1c2.3-3.8,5.6-6.8,9.8-8.8c4.2-2,10.3-3.8,18.2-5.3c10.7-2,18.1-3.9,22.2-5.6
			v-2.3c0-4.4-1.1-7.5-3.3-9.4c-2.2-1.9-6.3-2.8-12.3-2.8c-4.1,0-7.3,0.8-9.5,2.4C495.6,230.1,493.7,232.9,492.3,236.9z M523,255.5
			c-2.9,1-7.6,2.1-13.9,3.5c-6.4,1.4-10.5,2.7-12.5,4c-3,2.1-4.5,4.8-4.5,8.1c0,3.2,1.2,6,3.6,8.3c2.4,2.3,5.4,3.5,9.1,3.5
			c4.1,0,8.1-1.4,11.8-4.1c2.8-2.1,4.6-4.6,5.5-7.6c0.6-2,0.9-5.7,0.9-11.2V255.5z"/>
		<path d="M565.9,302.7l26.1,3.2c0.4,3,1.4,5.1,3,6.3c2.2,1.6,5.6,2.4,10.3,2.4c6,0,10.5-0.9,13.4-2.7c2-1.2,3.5-3.1,4.6-5.8
			c0.7-1.9,1.1-5.4,1.1-10.5V283c-6.8,9.3-15.5,14-25.9,14c-11.6,0-20.8-4.9-27.6-14.7c-5.3-7.8-8-17.4-8-29
			c0-14.5,3.5-25.6,10.5-33.2c7-7.7,15.7-11.5,26-11.5c10.7,0,19.5,4.7,26.5,14.1v-12.1h21.4v77.6c0,10.2-0.8,17.8-2.5,22.9
			c-1.7,5.1-4,9-7.1,11.9c-3,2.9-7.1,5.1-12.2,6.8c-5.1,1.6-11.5,2.4-19.3,2.4c-14.7,0-25.1-2.5-31.2-7.5c-6.1-5-9.2-11.4-9.2-19.1
			C565.8,304.8,565.8,303.8,565.9,302.7z M586.3,252c0,9.2,1.8,15.9,5.3,20.2c3.6,4.3,7.9,6.4,13.2,6.4c5.6,0,10.3-2.2,14.2-6.6
			c3.9-4.4,5.8-10.8,5.8-19.4c0-9-1.8-15.6-5.5-20c-3.7-4.3-8.4-6.5-14-6.5c-5.5,0-10,2.1-13.6,6.4
			C588.1,236.8,586.3,243.3,586.3,252z"/>
		<path d="M720,269.5l22.8,3.8c-2.9,8.4-7.6,14.7-13.9,19.1c-6.3,4.4-14.2,6.6-23.7,6.6c-15,0-26.2-4.9-33.4-14.7
			c-5.7-7.9-8.6-17.8-8.6-29.8c0-14.3,3.7-25.6,11.2-33.7c7.5-8.1,17-12.2,28.4-12.2c12.9,0,23,4.3,30.5,12.7
			c7.4,8.5,11,21.5,10.7,39.1h-57.3c0.2,6.8,2,12.1,5.5,15.8c3.5,3.8,7.9,5.7,13.2,5.7c3.6,0,6.6-1,9-2.9
			C716.9,277,718.7,273.9,720,269.5z M721.3,246.4c-0.2-6.6-1.9-11.7-5.1-15.1c-3.3-3.5-7.2-5.2-11.9-5.2c-5,0-9.1,1.8-12.4,5.5
			s-4.9,8.6-4.8,14.8H721.3z"/>
		<path d="M784.6,297h-22.9v-86.5h21.3v12.3c3.6-5.8,6.9-9.6,9.8-11.5c2.9-1.8,6.2-2.8,9.9-2.8c5.2,0,10.2,1.4,15.1,4.3l-7.1,20
			c-3.9-2.5-7.4-3.7-10.8-3.7c-3.2,0-5.9,0.9-8.1,2.6c-2.2,1.8-4,5-5.3,9.6c-1.3,4.6-1.9,14.3-1.9,29V297z"/>
	</g>
	<g>
		<path d="M237.9,208.5c0-3.4-2.1-6.1-5.4-7.1c-0.6-0.2-1.2-0.3-1.8-0.5c0-12.1,0-24.1,0-36.1c5.2-1.1,7.2-3.5,7.2-8.7
			c0-18.8,0-37.6,0-56.4c0-4.8-3-7.9-7.7-7.9c-40.8,0-81.6,0-122.4,0c-2.7,0-4.8,1-6.5,3.2c-7.2,9.4-14.5,18.7-21.5,28.2
			c-1.2,1.6-2,4-2,6c-0.2,13.6-0.1,27.2-0.1,40.7c0,5.9,1.5,7.9,7.2,9.5c0,2.2,0,4.5,0,6.8c-5.5,1.3-7.2,3.5-7.2,9.1
			c0,30.6,0,61.1,0,91.7c0,6,2.7,8.7,8.8,8.7c15.7,0,31.4,0,47.1,0c2.4,0,4.9,0.3,6.7-1.5c1.5-1.6,2.5-3.6,3.9-5.7
			c9,0,18.5,0,28.1,0c1.1,4.8,3.5,7.2,7.5,7.2c17,0,34,0,51,0c4.1,0,7.2-3.1,7.2-7.2C237.9,261.9,237.9,235.2,237.9,208.5z
			 M201.5,121.3c0-4.3,3.2-7.5,7.2-7.5c4,0,7.2,3.2,7.3,7.4c0.1,3.6,0,7.3,0,10.9c0,3.5,0,7,0,10.5c-0.1,4.4-3.2,7.6-7.4,7.6
			c-4,0-7.2-3.3-7.2-7.5C201.5,135.5,201.5,128.4,201.5,121.3z M179.6,121.3c0.1-4.3,3.2-7.5,7.2-7.5c4.1,0,7.3,3.2,7.4,7.6
			c0,7,0,14.1,0,21.1c0,4.4-3.2,7.7-7.3,7.6c-4.1,0-7.2-3.3-7.2-7.7c0-3.5,0-7,0-10.5C179.6,128.5,179.6,124.9,179.6,121.3z
			 M157.8,121.5c0-4.4,3.1-7.7,7.2-7.7c4.1,0,7.3,3.2,7.3,7.6c0,7,0,14.1,0,21.1c0,4.4-3.2,7.7-7.3,7.6c-4,0-7.1-3.3-7.2-7.5
			c0-3.6,0-7.1,0-10.7C157.8,128.5,157.8,125,157.8,121.5z M135.9,121.5c0-4.4,3.2-7.7,7.3-7.7c4.1,0,7.2,3.3,7.3,7.7
			c0,7,0,14.1,0,21.1c0,4.4-3.3,7.6-7.4,7.6c-4-0.1-7.1-3.3-7.1-7.6c0-3.6,0-7.1,0-10.7C135.9,128.5,135.9,125,135.9,121.5z
			 M114.1,121.3c0.1-4.3,3.2-7.5,7.2-7.5c4,0,7.3,3.2,7.3,7.4c0.1,7.2,0.1,14.4,0,21.6c0,4.2-3.3,7.4-7.3,7.4c-4,0-7.2-3.3-7.2-7.5
			c0-3.6,0-7.1,0-10.7C114.1,128.4,114.1,124.9,114.1,121.3z M223,249.1c-6.2-17.3-19.9-27.5-26.1-31.4c-5.8-3.6-7.7-1.8-9.7,0
			c0,0-0.1,0.1-0.1,0.1c-15.8,15.2-38.4-0.6-59.5,8.2l-1.5,0.8l8.9,29.3c0.6,2,2.4,3.3,4.5,3.3h10.8c0,0,0-0.1-0.1-0.2
			c-3.8-12,2.9-24.7,14.8-28.5c12-3.8,24.7,2.9,28.5,14.8c3.8,12-2.9,24.7-14.8,28.5c-10.3,3.2-21.2-1.2-26.4-10.2h-9.5l4.5,2.1
			c2.2,1.1,3.2,3.7,2.1,6l-17.2-8.1H122c0-2.5,2-4.5,4.5-4.5h2.7l-5.4-17.6c-1.4-4.6-2.9-6.5-5.8-6.2c-3.2,0.4-6.7,3.8-5.2,9l6,19.8
			c0.6,2,2.4,3.3,4.5,3.3h11.7c2.5,0,4.5,2,4.5,4.5h-13l4.5,2.1c2.2,1.1,3.2,3.7,2.1,6l-17.2-8.1h-10.2c0-2.5,2-4.5,4.5-4.5h2.7
			l-7.6-25c-0.9-3.1-2-4.9-3.7-6.9c-0.4-0.5-0.8-0.9-1.2-1.4c0,0,0,0-0.1-0.1c-25.6-30.6-1.8-62.7,29-63.1
			c11.6-0.2,24.3,4.2,35.6,14.8c15.8-7.6,32,8.5,28.9,21.8c2.1,1.4,4.7,3.2,7.6,5.4c15.6,11.8,23.2,25.1,24.3,29.7
			S223,249.1,223,249.1z"/>
		<path d="M176.3,194.6c-3.8,0-6.8,3.1-6.8,6.8c0,3.3,2.4,6.1,5.5,6.7c-0.9-0.8-1.5-2-1.5-3.3c0-2.4,1.9-4.4,4.4-4.4
			c2.4,0,4.3,1.9,4.4,4.3c0.5-1,0.9-2.1,0.9-3.3C183.1,197.7,180.1,194.6,176.3,194.6z"/>
	</g>
</g>
</svg>
